<svg version="1" xmlns="http://www.w3.org/2000/svg" width="1496" height="1496" viewBox="0 0 1122.000000 1122.000000"><path d="M536.6.8c-.3.2-3.6.6-7.3.7-3.7.2-6.8.4-6.8.5 0 .1-1.6.3-3.5.5-4.7.4-11.8 1.4-15.5 2.2-1.6.3-3.9.7-5 .8-1.1.1-3.6.5-5.5.9s-4.4.9-5.5 1.1c-1.1.2-2 .4-2 .5 0 .1-1.3.4-3 .6-1.6.3-3.7.7-4.5 1.1-.8.3-1.9.5-2.4.4-.4-.1-2.4.3-4.3 1-1.9.6-4.4 1.2-5.6 1.4-1.2.2-4.2.9-6.7 1.5-2.5.7-5.2 1.3-6 1.5-.8.2-8 2.5-16 5.1-8 2.6-14.7 4.9-15 4.9-.8.2-4.2 1.6-7.5 3-1.6.6-6.1 2.5-10 4.1-3.8 1.5-7.3 3.3-7.7 3.9-.4.5-.8.7-.8.3 0-.9-24.2 11.1-25.1 12.4-.3.6-.9.8-1.2.6-.4-.1-1.5.4-2.5 1.2-1 .8-2.5 1.6-3.3 1.8-.8.2-1.9 1-2.5 1.7-.6.8-1.3 1.2-1.6 1-.3-.3-1.1.1-1.8 1-.7.8-1.8 1.5-2.4 1.5-.7 0-2.1.8-3.2 1.8-1 1-2.1 1.8-2.4 1.8-.3-.1-2.1 1.2-4.1 2.7-2 1.5-4 2.7-4.5 2.7s-2.4 1.4-4.1 3.1c-1.8 1.6-3.3 2.6-3.3 2.2 0-.4-.6-.1-1.3.7-.7.8-3.2 2.8-5.7 4.5-2.5 1.6-5.7 4.3-7.2 5.8-1.6 1.5-2.8 2.5-2.8 2.2 0-.6-3.1 1.9-9 7.5-2.6 2.5-5.1 4.6-5.4 4.7-1.8.8-22.7 21.2-34.6 33.9-8.7 9.2-12.2 13.8-11.3 14.8.4.4.1.5-.7.2-.9-.4-2.3.6-3.7 2.6-1.3 1.8-3.4 4.6-4.8 6.2-1.4 1.6-2.5 3.6-2.5 4.4 0 .9-.3 1.3-.6.9-.7-.7-5.4 4.6-5.4 6.2 0 .6-.4 1.1-1 1.1-.5 0-1 .6-1 1.4 0 .8-.7 1.7-1.6 2-.9.4-1.4.9-1.1 1.2.2.3-.6 1.7-1.9 3.1-1.3 1.4-2.1 2.9-1.9 3.3.3.4-.2 1.1-1 1.4-.9.3-2 1.6-2.5 2.8-.6 1.3-2.4 4.3-4 6.8s-3.5 5.6-4.3 7c-.7 1.4-2.3 4.2-3.5 6.2-6.3 11-9.2 16.8-8.5 16.8.4 0 .3.4-.2.8-1.8 1.2-10 18.8-9.7 20.4.1.5-.3.8-.8.8-.6 0-1 .9-1 1.9 0 1.1-.5 2.3-1.1 2.6-.6.4-.8 1.3-.5 2.1.3.8.1 1.4-.4 1.4s-1.3 1.5-1.9 3.2c-.5 1.8-1.9 5.7-3 8.5-1.2 2.9-1.8 5.3-1.3 5.3.4 0 .2.4-.4.8-.7.4-1.4 1.8-1.5 3.2-.2 1.4-.8 2.8-1.2 3.1-.5.4-1 1.8-1 3.3-.1 1.4-.5 2.6-.8 2.6-.4 0-1 1.7-1.5 3.7-.9 4.3-1 5.1-1.4 5.8-.1.3-.4.9-.5 1.5-.1.5-.3 1.1-.5 1.2-.2.4-1.1 3.9-1.4 5.8-.1.9-.5 2.1-1 2.8-.4.6-.5 1.6-.1 2.1.3.5 0 1.3-.6 1.6-.5.4-.8 1.3-.5 2 .2.7.2 1.6-.2 2-.4.4-.8 1.1-.8 1.6-.1.5-.2 1-.4 1.1-.1.2-.3 1.2-.5 2.3-.3 2.3-1.2 6.9-2.1 10.5-.3 1.4-.7 3.5-.9 4.7-.2 1.2-.6 3.4-.9 5-1.1 4.9-1.4 6.9-2.1 12.4-.3 3-.8 6.5-1.1 7.9-1 5.4-1.6 17.4-1.9 37-.3 22.3.1 28.3 1.8 27.3.6-.4.7-.1.2.8-.9 1.3-.8 6.9.1 11.3.2 1.2.6 3.8.9 6 .6 4.4 1.2 8 2.1 11.6.3 1.4.6 3.2.6 4 0 .8.2 2.2.5 3 .3.8.6 3.1.8 5.1.2 2.1.9 4.7 1.5 5.9.9 1.7.9 2.1 0 1.5-.9-.6-.9-.3-.2 1.1.5 1.1 1.2 3.5 1.6 5.4.3 1.9 1 5.5 1.6 8 .6 2.5 1.2 5.6 1.5 7 .3 1.4 1.1 4.7 1.7 7.5.7 2.7 1.1 5.3 1 5.7-.1.5.3.8.9.8.5 0 .7.4.4 1-.3.5-.3 1.6.2 2.2.4.7.8 2 .9 2.8.1 1.7 1.3 6.8 2.1 9 .4.8.8 2.6 1 4 .2 1.4.6 3.2 1 4 .6 1.6 1 2.9 1.7 5.7.3 1 .5 1.9.6 2 .2.2.3.6.4 1 1 4.9 4.1 14.3 4.6 14.3.4 0 .7.6.7 1.4 0 2.5 2.5 10.6 3.3 10.6.5 0 .7.8.6 1.7-.2.9.3 2.8 1 4.2.7 1.3 1.1 2.8.8 3.3-.3.4-.1.8.3.8.5 0 1.5 2.1 2.2 4.7.8 2.7 1.7 5.2 2.1 5.8.5.5 1.4 2.9 2.1 5.2.6 2.4 1.6 4.3 2.1 4.3.4 0 .8.9.8 2 0 1.2.9 4 2 6.2 1.1 2.3 2 4.8 2 5.5 0 .7.5 1.3 1 1.3.6 0 1 .9 1 1.9 0 1.1.5 2.3 1 2.6.6.4.8 1.1.5 1.6-.4.5-.2.9.3.9s.9.6.9 1.2c0 .7 1.6 4.7 3.6 9 2.1 4.2 3.7 8.1 3.7 8.7 0 .6.4 1.1 1 1.1.5 0 .9.4.7.8-.2.8 4.3 11.3 5.3 12.2.3.3 2.1 4 4 8.2 2.6 5.6 3.9 7.6 5 7.2 1.1-.4 1.2-.2.3.6-.8.9-.6 2.1 1 4.9 1.2 2 2.5 3.9 3 4.2.5.3.8.8.6 1-.5.9 1.3 4.9 2.2 4.9.5 0 .9.7.9 1.4 0 2.7 4.6 6.5 8.3 7 2 .2 4.1.7 4.6 1 .5.4 1.2.2 1.6-.4.4-.6 1.2-.7 1.8-.3 1.5.9 38.4 1 41.9.1 1.5-.3 3-.2 3.4.3.3.5 1.1.6 1.7.2.7-.4 4.5-.9 8.6-1 8.6-.3 20.6-1.6 20.6-2.2 0-.1 2.3-.4 5-.6 9.6-.9 12-1.2 15.5-2 1.9-.5 4.2-.9 5-1 .8-.1 4.2-.8 7.5-1.5 7.3-1.7 7.4-1.7 7.8-2 .2-.2 1-.3 5.7-1.3 4.6-1 13.5-3.7 15.2-4.7 1-.6 2.5-1 3.4-1 .8 0 2.5-.5 3.7-1.2 1.2-.7 2.8-1.3 3.6-1.4.8-.2 1.7-.6 2-1.1.3-.4 1.1-.8 1.6-.8 2-.1 8.5-2.9 8.5-3.8 0-.4.5-.5 1-.2.6.3 1 .1 1-.4 0-.6.7-1.1 1.5-1.1s3.6-1.3 6.3-2.9c2.7-1.6 5.9-3.2 7-3.6 1.2-.3 2.2-1.1 2.2-1.6 0-.6.4-.8.9-.4.6.3 1.4-.3 2-1.2.5-1 1.2-1.7 1.5-1.6 1.3.6 2.3.2 4.4-1.7 1.2-1.2 2.2-1.8 2.2-1.5 0 .3 1.1-.2 2.5-1.1 1.4-.9 2.2-2.1 1.8-2.7-.3-.6-.1-.7.5-.3 1.7 1 32.2-21.3 32.2-23.6 0-.6.3-.9.6-.5.3.3 2.4-1.1 4.6-3.1 14.5-13.3 17.7-16.6 17.1-17.5-.3-.5-.1-.7.4-.4.9.6 9.5-8 15.5-15.7 1.3-1.5 3.5-4.2 5-6 1.5-1.7 2.8-3.7 2.8-4.4 0-.6.4-1.2.9-1.2s1.2-.7 1.5-1.5c.6-1.7-1.8-2.9-7.5-3.9-1.9-.3-4.7-.9-6.4-1.4-1.6-.5-4-.8-5.2-.7-1.3.1-2.3-.2-2.3-.6 0-.4-.8-.8-1.7-.8-1 0-4-.5-6.8-1.1-2.7-.6-6.3-1.3-8-1.5-1.6-.2-5.9-1.1-9.5-2-10.7-2.6-13.8-7.8-8.2-13.4 3.4-3.4 10.8-5.8 24-7.6 1.5-.3 3.7-.6 4.9-.9 1.1-.2 4.3-.8 7-1.2 2.6-.3 5.2-.9 5.7-1.2.5-.3 2.5-.6 4.5-.8 2-.1 4.7-.5 6.1-.8 1.4-.3 5-1.1 8-1.7 3-.6 7.3-2 9.5-3 5.2-2.5 11.5-7.6 11.5-9.5 0-.8.4-1.4.9-1.4s1.2-1.4 1.6-3c.4-1.7 1-3 1.4-3 .4 0 1.4-2.3 2.1-5 .7-2.8 1.7-5 2-5 .4 0 .7-.6.7-1.3 0-.6 1.7-5.7 3.8-11.2 6.6-17.9 7-19 6.7-19.8-.1-.4.2-.7.6-.7.4 0 .9-.8 1-1.8.3-3.1.7-4.7 1.5-5.9 1-1.6 1.9-5.3 1.9-7.6-.1-.9.3-1.7.7-1.7.6 0 3.2-8 4.7-14.5.2-.6.7-2.5 1.3-4.3.5-1.7.7-3.2.4-3.2-.3 0 0-.6.6-1.4 1.8-2.1 2.2-15.6.5-18.7-.8-1.6-3-3.3-5.8-4.3-2.5-1-4.7-1.6-4.8-1.5-.2.1-1.2-.3-2.4-.9-1.1-.6-3.2-1.3-4.5-1.6-3.8-.8-6-1.3-12.4-3.1-7.3-2-32.4-8.5-34.5-8.9-.8-.2-2.2-.6-3-.9-1.5-.6-20.5-5.4-25-6.3-1.4-.3-4.1-1-6-1.5-15.2-4.6-30-8-31.3-7.3-.7.4-.8.3-.4-.2.5-.5-1.1-1.4-3.5-2-2.4-.6-4.9-1.3-5.7-1.5-.7-.2-2.4-1.3-3.7-2.5-3-2.7-2.5-6.9 1.2-10 3.6-2.9 13.2-6.2 20.4-6.8 3-.3 8.2-.8 11.5-1.2 3.3-.3 8.3-.7 11-.9 2.8-.2 7.9-.6 11.5-.9 3.6-.3 10.8-.8 16-1.2 5.2-.4 11.1-.8 13-1 1.9-.2 6.9-.6 11-.9 4.1-.2 10.4-.7 14-1 3.6-.2 10.8-.7 16-1 10.8-.6 15.8-1.2 17.3-2.2.6-.4.7-.1.2.7-.5.9-.4 1.1.3.6.7-.4 4.9-.9 9.4-1.1 14.4-.8 20.3-1.7 27.6-4.1 8.9-3 10.2-4.9 27.7-40.7 3.8-7.6 7.3-14.4 8-15 .6-.7 2.9-3.9 5-7.2 9.9-15 23.6-23.4 49.4-30.3 3.6-1 7.2-1.7 7.9-1.6.6.1 2.1.2 3.2.3 2.4.1 4.7 4.4 6 10.9.5 2.6 1.1 5.6 1.4 6.7.2 1.1.7 4.5 1.1 7.5.4 3 1 6.4 1.2 7.5.8 3.3 1.3 26.5.5 26.5-.4 0-.8 1.1-.8 2.4-.3 4.7-15.2 31.5-24 43.1-3.5 4.7-8.6 15.5-10 21.2-1.4 5.9-1 12.4.9 16.2 1.8 3.6 4.1 7.5 4.7 8.1 1.3 1.2 6 9.1 6 9.9 0 .5.4 1.1.8 1.3.7.2 21.7 33.2 23.2 36.3.3.5 2.6 4.3 5.3 8.3 2.6 4 4.7 7.6 4.7 8.1 0 .4.9 1.6 2 2.6s2 2.4 2 3.2c0 .7.4 1.3.9 1.3s1.1.8 1.4 1.7c.6 1.8 3.7 7.3 4.7 8.3.3.3 1.2 1.7 2 3.2.8 1.5 3.5 6 6 10 6.3 10.2 6.4 10.5 10.3 18.3 4.5 9 5.7 13.3 6.4 22.5.6 8.7-.6 12.5-4.2 14.2-3.8 1.7-6 .3-21.9-13.7-5-4.4-9.6-8.4-10.2-9-.6-.5-4.3-3.9-8.3-7.5-4-3.6-8.5-7.6-10-9-1.5-1.4-7.8-7.2-14-13-6.3-5.8-13.3-12.3-15.6-14.5-2.3-2.2-9-8.5-15-14s-11.9-11-13.2-12.2c-3.7-3.6-10.5-7-14.4-7.2-4.2-.3-8.7 3-12.6 9.2-1.4 2.2-3 4.5-3.5 5.1-2.2 2.6-16.8 25-16.8 25.7 0 .5-.4.9-.9.9s-1.3.9-1.6 2c-.3 1.1-1.2 2.6-1.9 3.2-1.3 1.5-12.5 18.4-12.8 19.6-.1.4-.7 1.3-1.4 1.9-.7.7-2.2 2.9-3.5 5-1.3 2.1-2.9 4.4-3.6 5.1-.8.8-3.5 5.7-6.1 11-4.2 8.7-4.7 10.4-4.7 16.7 0 6.7.3 7.7 6.4 20 3.6 7.2 6.9 13.1 7.3 13.3.4.2.8.9.8 1.5 0 .7.7 2.5 1.5 4 3.6 6.9 6.7 19.3 6.8 27.6.3 11-.9 11.9-8.6 7-5.7-3.5-12.9-9.2-17.9-14.2-1.5-1.5-2.8-2.6-2.8-2.4 0 .2-2.9-2.4-6.4-5.7-14.7-14.1-15.9-14.9-17.3-13-1.1 1.6-7.1 16.2-7.8 18.9-.1.5-.7 2.3-1.3 3.8-.7 1.6-1.2 3.1-1.2 3.3 0 .3-.9 2.6-2.1 5.1-1.1 2.5-2.2 5.3-2.4 6.2-.2.9-1.2 3.7-2.3 6.3-1.1 2.5-1.8 4.9-1.5 5.2.4.3.1.6-.5.6-.7 0-1.2.5-1.2 1.1 0 2.3-9.9 25.5-17.8 41.9-1.5 3-2.6 5.8-2.4 6.2.1.5-.2.8-.7.8-.8 0-3.2 4.7-3.4 6.7 0 .4-.9 1.7-1.9 2.7-1 1.1-2.3 3.5-3 5.3-.7 1.8-1.6 3.3-2 3.3-.4 0-.8.7-.8 1.5s-.4 1.5-1 1.5c-.5 0-1 .9-1 2s-.4 2-.8 2c-.5 0-1.9 1.9-3.3 4.1-1.3 2.3-3.1 5.1-3.9 6.4-5.2 7.6-6.7 10.1-6.8 10.8-.1.4-.8 1.5-1.7 2.3-.8.9-2.9 3.7-4.7 6.2-1.8 2.6-3.6 5.1-4 5.7-.5.5-3.2 4.1-6 8-2.9 3.8-5.7 7.5-6.3 8.2-1.2 1.5-1.9 2.3-6.5 8.3-1.9 2.5-4.3 5.1-5.2 5.8-1 .7-1.8 2-1.8 2.8 0 .8-.7 1.4-1.5 1.4s-1.5.4-1.5.9-2.3 3.2-5 6.1c-2.8 2.9-5 5.4-5 5.6 0 .4-14.3 14.4-14.8 14.4-.1 0-1.4 1-2.7 2.3-2.1 1.9-5.5 4.8-10.8 9.2-13.7 11.2-37 25.8-57.9 36.2-4.9 2.4-8.8 4.8-8.8 5.4 0 .6 1.7 3.2 3.8 5.7 2 2.6 4 5.1 4.5 5.7.6.9 5.8 7.5 15.7 20.4 1.4 1.8 4.5 5.9 7 9.1 2.5 3.2 5.4 7 6.5 8.6 1.1 1.5 2.5 3.2 3 3.8.6.6 2.3 2.9 4 5.1 1.6 2.1 3.6 4.7 4.5 5.6.8 1 3.8 4.8 6.7 8.6 8 10.6 31.1 40.6 32.4 42.2.7.7 2.8 3.4 4.7 6 1.9 2.5 3.9 4.7 4.4 4.9.4.2.8.8.8 1.3 0 .6 2.8 4.5 6.3 8.8 4.8 6.1 32.1 41.3 39.5 50.9.6 1 4.9 6.4 9.5 12.3 4.5 5.8 9.1 11.8 10.2 13.3 1.1 1.5 3 4 4.3 5.4 1.2 1.5 3.5 4.5 5 6.7 2.9 4.3 8.1 11.3 9.7 13 .6.7 2.4 2.9 4 5 1.7 2.1 4.8 6.1 7 8.9 2.2 2.8 5.8 7.5 8 10.4l4 5.3 3-3.3c1.7-1.9 4.6-5.4 6.5-7.7 1.9-2.4 4-4.9 4.5-5.5.6-.6 3.5-4.3 6.5-8.1 3-3.9 6.3-7.9 7.4-9 1-1.1 3-3.6 4.5-5.5 1.4-1.9 3.4-4.4 4.3-5.5 1-1.1 6.8-8.3 12.9-16 6.2-7.7 11.5-14.2 11.9-14.5.4-.3.9-1 1.1-1.6.2-.6 2-3.1 4-5.5 4.4-5.3 20.2-25.3 37.4-47.4 4.7-6.1 9.5-12.1 10.6-13.5 1.1-1.4 2.8-3.7 3.7-5.3.9-1.5 1.9-2.7 2.3-2.7.3 0 2.1-2.2 4-5 1.9-2.7 3.7-5 4.2-5 .4 0 .7-.6.7-1.4 0-.8.4-1.6.8-1.8.7-.2 30.4-39.3 36.5-47.8 1-1.4 3-4.1 4.5-6.1s6.1-8.3 10.2-14c4.1-5.7 7.8-10.9 8.3-11.4 2-2.5 15.3-21.4 24.2-34.5 5.4-8 10.3-14.7 10.7-14.8.4-.2.8-.8.8-1.4 0-1.1 5.9-10 7.3-10.9.5-.3.8-.9.8-1.3-.1-.6 2.3-4.7 7.6-12.7 1.3-1.9 2.3-4 2.3-4.7 0-.7.5-1.2 1-1.2.6 0 1-.4 1-.9s3.6-7 8-14.6 8-13.9 8-14c0-.2 2-3.7 4.5-7.9 2.4-4.2 4.1-7.6 3.7-7.6-.4 0-.2-.4.4-.8 1.4-.9 9-14.5 8.6-15.5-.1-.4.2-.7.8-.7.5 0 1-.6 1-1.4 0-.8.6-2.1 1.3-2.8.6-.7 2.5-3.9 4-7.1 1.5-3.1 3.3-5.7 3.9-5.7.6 0 .8-.3.5-.6-.7-.7 7.3-16.7 8.6-17.2.4-.2.7-1.2.7-2.3 0-1 .5-1.9 1.1-1.9.5 0 .7-.5.4-1-.3-.5-.2-1 .2-1 .9 0 4.3-7.2 4.3-9.1 0-.5.5-.7 1-.4.6.3 1-.3 1-1.4 0-1.2.5-2.1 1.1-2.1.5 0 .7-.4.4-1-.3-.6-.3-1 .2-1 .4 0 1.3-1.1 2-2.5.8-1.8.8-2.3 0-1.8-.6.4-.1-.7 1.1-2.4 1.2-1.7 2.2-3.6 2.2-4.2 0-.6.5-1.1 1.1-1.1.5 0 .8-.4.4-.9-.3-.5-.1-1.2.5-1.6.6-.4.8-1.1.5-1.6-.4-.5-.1-.9.5-.9.7 0 .9-.7.6-1.6-.3-.8-.2-1.3.3-1 1.1.7 3.2-4.9 2.3-6-.4-.4-.1-.4.6 0 .6.4 1.2.3 1.2-.2s1.5-4.3 3.4-8.3c1.8-4.1 3.3-7.6 3.2-7.9 0-.3.9-1.9 2.2-3.7 1.2-1.7 2.2-3.8 2.2-4.6 0-.9.5-1.9 1-2.2.6-.4.8-1 .5-1.5-.3-.5-.1-1.1.5-1.5.6-.4.8-1.1.5-1.6-.4-.5-.2-.9.4-.9 1 0 2.3-2.9 1.8-4.1-.1-.4.7-1.6 1.7-2.8 1.1-1.2 1.6-2.1 1.2-2.1-.4 0 0-1.2.8-2.8 3.4-6.1 20.6-49.4 26.1-65.7.9-2.8 2.1-5.9 2.6-7 .7-1.9 5.9-18.4 10.9-35.1 1.1-3.9 2.3-8.4 2.6-10 .3-1.6 1.1-5.2 1.9-7.9.8-2.8 1.7-6.6 2-8.5.3-1.9 1-5.1 1.5-7 .5-1.9 1.2-5.5 1.5-8 .3-2.5 1-6.1 1.5-8 .5-1.9 1.2-5.9 1.5-8.9.4-3 .9-6.3 1.1-7.5.3-1.8 1.4-12.1 1.8-18.1.1-1.1.4-2.5.7-3 .4-.8.4-30.2 0-41.8-.1-.9-.1-2.3-.1-3 .1-4.3-.6-9.3-1.5-9.9-.6-.5-.5-.8.3-.8.7 0 1-.5.6-1.1-.4-.6-.8-2.3-.9-3.8-.7-6.6-1.8-14.7-2.1-15.2-.2-.3-.6-2.4-.9-4.5-.2-2.1-.7-5-1-6.4-1.1-4.6-1.7-7.5-1.9-9.5-.2-1.1-.6-2.7-.9-3.5-.4-.8-.8-2.6-1-4-.2-1.4-.6-3.2-.9-4-.4-.8-1.4-4.4-2.3-8-1.6-6-7.4-23.9-10.9-33.5-6-16.8-27.8-61.3-32.3-66.3-.7-.7-1.3-1.9-1.3-2.7 0-.7-.4-1.5-.8-1.7-.4-.2-2.7-3.5-5.1-7.3-3.7-5.8-7.1-10.8-17.3-25-.4-.6-2.8-3.6-5.3-6.7-2.5-3.2-4.5-6-4.5-6.3 0-.3-1.2-1.7-2.8-3.2-1.5-1.6-5-5.5-7.7-8.8-17.1-20.5-52.7-54.1-67-63.1-1.6-1-3.2-2.2-3.5-2.5-.7-1-15.3-10.7-23-15.4-13.7-8.3-32.9-18-48.5-24.4-14.9-6-16.7-6.8-17.7-7-.4-.1-3.7-1.3-7.3-2.6-3.6-1.4-6.5-2.3-6.5-2 0 .2-1.5-.2-3.4-1-5.2-2.2-26.5-7.8-34-9-1.6-.3-4.5-.9-6.5-1.5-2-.5-5.2-1.2-7.1-1.5-1.9-.3-4.6-.7-6-1-1.4-.3-4.1-.7-6-.9-1.9-.3-7.1-1-11.5-1.5-4.4-.6-10.7-1.4-14-1.7-7.6-.7-58.3-1.3-58.9-.6zM329 103.4c0 .3-.4.8-1 1.1-.5.3-1 .1-1-.4 0-.6.5-1.1 1-1.1.6 0 1 .2 1 .4zm0 112.2c0 .8-1.9 1.3-2.4.6-.3-.5.1-.9.9-.9s1.5.2 1.5.3zm-4.5 52.4c.3.5.1 1-.4 1-.6 0-1.1-.5-1.1-1 0-.6.2-1 .4-1 .3 0 .8.4 1.1 1zm8.5-.4c0 .8-1.9 1.3-2.4.6-.3-.5.1-.9.9-.9s1.5.2 1.5.3zm-8.5 8.4c.3.5.1 1-.4 1-.6 0-1.1-.5-1.1-1 0-.6.2-1 .4-1 .3 0 .8.4 1.1 1zm8.2 7.5c0 .8-.4 1.2-.9.9-.5-.3-.6-1-.3-1.5.9-1.3 1.2-1.1 1.2.6zm-7.7.5c0 .5-.2 1-.4 1-.3 0-.8-.5-1.1-1-.3-.6-.1-1 .4-1 .6 0 1.1.4 1.1 1zm8 87.6c0 .8-1.9 1.3-2.4.6-.3-.5.1-.9.9-.9s1.5.2 1.5.3zm-.6 8.2c.3.5-.1.9-.9.9s-1.2-.4-.9-.9c.3-.4.7-.8.9-.8.2 0 .6.4.9.8zm31.7 124.9c1.3 1.6 1.2 1.7-.3.4-1-.7-1.8-1.5-1.8-1.7 0-.8.8-.3 2.1 1.3zm9 15c1.3 1.6 1.2 1.7-.3.4-1-.7-1.8-1.5-1.8-1.7 0-.8.8-.3 2.1 1.3zM241 647.4c0 .3-.4.8-1 1.1-.5.3-1 .1-1-.4 0-.6.5-1.1 1-1.1.6 0 1 .2 1 .4zm136.1 20.3c1.3 1.6 1.2 1.7-.3.4-1.7-1.3-2.2-2.1-1.4-2.1.2 0 1 .8 1.7 1.7zm-48.6 12.2c.3.5.2 1.2-.3 1.5-.5.3-.9-.1-.9-.9 0-1.7.3-1.9 1.2-.6z"/></svg>