<svg xmlns="http://www.w3.org/2000/svg" viewBox="0 0 512 512"><path d="M113.47 309.4l-17.82 66.54-65.14 1.38A254.85 254.85 0 0 1 0 256c0-42.45 10.32-82.48 28.62-117.73h.02l57.99 10.63 25.4 57.64a152.17 152.17 0 0 0-8.21 49.46c0 18.8 3.4 36.8 9.65 53.4z" fill="#fbbb00"/><path d="M507.53 208.18A256.28 256.28 0 0 1 512 256c0 18.33-1.93 36.2-5.6 53.45a255.95 255.95 0 0 1-90.13 146.19l-.02-.02-73.04-3.72-10.34-64.54a152.57 152.57 0 0 0 65.65-77.9h-136.9V208.17h245.9z" fill="#518ef8"/><path d="M416.25 455.62l.02.02A254.92 254.92 0 0 1 256 512c-97.5 0-182.25-54.5-225.5-134.68l82.97-67.91c21.62 57.7 77.28 98.77 142.53 98.77 28.05 0 54.32-7.58 76.87-20.82l83.38 68.26z" fill="#28b446"/><path d="M419.4 58.94l-82.93 67.9A151.32 151.32 0 0 0 256 103.81c-66.73 0-123.43 42.96-143.97 102.72l-83.4-68.27C71.22 56.12 157.05 0 256 0a254.92 254.92 0 0 1 163.4 58.94z" fill="#f14336"/></svg>