<svg xmlns="http://www.w3.org/2000/svg" viewBox="0 0 512 512">
  <path d="M64.666 182l23.917 289.072C90.707 494.407 109.97 512 133.393 512h245.215c23.423 0 42.686-17.593 44.824-41.06L447.336 182H64.666zM181 407c0 8.291-6.709 15-15 15s-15-6.709-15-15V227c0-8.291 6.709-15 15-15s15 6.709 15 15v180zm90 0c0 8.291-6.709 15-15 15s-15-6.709-15-15V227c0-8.291 6.709-15 15-15s15 6.709 15 15v180zm90 0c0 8.291-6.709 15-15 15s-15-6.709-15-15V227c0-8.291 6.709-15 15-15s15 6.709 15 15v180zM436 60H331V45c0-24.814-20.186-45-45-45h-60c-24.814 0-45 20.186-45 45v15H76c-24.814 0-45 20.186-45 45v30c0 8.291 6.709 15 15 15h420c8.291 0 15-6.709 15-15v-30c0-24.814-20.186-45-45-45zm-135 0h-90V45c0-8.276 6.724-15 15-15h60c8.276 0 15 6.724 15 15v15z"/>
</svg>
