<?xml version="1.0"?>
<svg xmlns="http://www.w3.org/2000/svg" height="512px" viewBox="-84 1 511 511.999" width="512px"><g><path d="m171.605469 122.542969c-26.148438 0-47.425781 21.277343-47.425781 47.425781s21.277343 47.425781 47.425781 47.425781c26.152343 0 47.425781-21.277343 47.425781-47.425781s-21.273438-47.425781-47.425781-47.425781zm0 0" data-original="#000000" class="active-path" data-old_color="#000000" fill="#6CB4FF"/><path d="m171.605469 0c-94.347657 0-171.105469 83.761719-171.105469 186.714844 0 39.769531 24.449219 102.386718 72.671875 186.117187 35.886719 62.3125 73.660156 116.703125 84.386719 131.894531 3.21875 4.554688 8.46875 7.273438 14.046875 7.273438h.011719c5.578124-.003906 10.828124-2.730469 14.042968-7.292969 26.195313-37.171875 156.734375-227.011719 157.050782-317.992187v-.324219c-.15625-102.808594-76.855469-186.390625-171.105469-186.390625zm0 247.417969c-42.707031 0-77.449219-34.742188-77.449219-77.449219s34.742188-77.453125 77.449219-77.453125 77.453125 34.746094 77.453125 77.453125-34.746094 77.449219-77.453125 77.449219zm0 0" data-original="#000000" class="active-path" data-old_color="#000000" fill="#6CB4FF"/></g> </svg>
