<?xml version="1.0" encoding="UTF-8" standalone="no"?>
<svg
   xmlns:dc="http://purl.org/dc/elements/1.1/"
   xmlns:cc="http://creativecommons.org/ns#"
   xmlns:rdf="http://www.w3.org/1999/02/22-rdf-syntax-ns#"
   xmlns:svg="http://www.w3.org/2000/svg"
   xmlns="http://www.w3.org/2000/svg"
   xmlns:xlink="http://www.w3.org/1999/xlink"
   viewBox="0 0 608.97322 857.60838"
   height="857.6084"
   width="608.97321"
   id="svg2"
   version="1.1">
  <metadata
     id="metadata8">
    <rdf:RDF>
      <cc:Work
         rdf:about="">
        <dc:format>image/svg+xml</dc:format>
        <dc:type
           rdf:resource="http://purl.org/dc/dcmitype/StillImage" />
        <dc:title></dc:title>
      </cc:Work>
    </rdf:RDF>
  </metadata>
  <defs
     id="defs6">
    <linearGradient
       id="linearGradient1036">
      <stop
         id="stop1032"
         offset="0"
         style="stop-color:#0797e8;stop-opacity:1;" />
      <stop
         id="stop1034"
         offset="1"
         style="stop-color:#0fb4f4;stop-opacity:0" />
    </linearGradient>
    <linearGradient
       id="linearGradient935">
      <stop
         id="stop931"
         offset="0"
         style="stop-color:#064fdd;stop-opacity:0.8761062" />
      <stop
         id="stop933"
         offset="1"
         style="stop-color:#0659dd;stop-opacity:1" />
    </linearGradient>
    <linearGradient
       id="linearGradient875">
      <stop
         id="stop871"
         offset="0"
         style="stop-color:#0797e8;stop-opacity:0.35840708" />
      <stop
         id="stop873"
         offset="1"
         style="stop-color:#0679e6;stop-opacity:0.58849555" />
    </linearGradient>
    <linearGradient
       gradientTransform="translate(-42.2741,6.03916)"
       gradientUnits="userSpaceOnUse"
       y2="613.74146"
       x2="1643.6482"
       y1="989.53058"
       x1="1827.2725"
       id="linearGradient877"
       xlink:href="#linearGradient875" />
    <linearGradient
       gradientUnits="userSpaceOnUse"
       y2="576.78235"
       x2="2059.5637"
       y1="574.64722"
       x1="1441.3026"
       id="linearGradient937"
       xlink:href="#linearGradient935" />
    <linearGradient
       gradientTransform="translate(24.523833,54.718776)"
       y2="576.78235"
       x2="2059.5637"
       y1="574.64722"
       x1="1441.3026"
       gradientUnits="userSpaceOnUse"
       id="linearGradient1026"
       xlink:href="#linearGradient935" />
    <linearGradient
       y2="613.74146"
       x2="1643.6482"
       y1="989.53058"
       x1="1827.2725"
       gradientTransform="translate(-17.750267,60.757936)"
       gradientUnits="userSpaceOnUse"
       id="linearGradient1028"
       xlink:href="#linearGradient875" />
    <linearGradient
       gradientTransform="translate(1040.8474,67.84036)"
       gradientUnits="userSpaceOnUse"
       y2="133.07619"
       x2="713.15747"
       y1="936.33459"
       x1="712.1618"
       id="linearGradient1038"
       xlink:href="#linearGradient1036" />
    <linearGradient
       y2="613.74146"
       x2="1643.6482"
       y1="989.53058"
       x1="1827.2725"
       gradientTransform="translate(-17.750267,60.757936)"
       gradientUnits="userSpaceOnUse"
       id="linearGradient1054"
       xlink:href="#linearGradient875" />
    <linearGradient
       y2="133.07619"
       x2="713.15747"
       y1="936.33459"
       x1="712.1618"
       gradientTransform="translate(1040.8474,67.84036)"
       gradientUnits="userSpaceOnUse"
       id="linearGradient1056"
       xlink:href="#linearGradient1036" />
  </defs>
  <g
     transform="translate(-1474.3672,-198.81517)"
     id="g1052">
    <path
       style="fill:url(#linearGradient1026);fill-opacity:1;stroke:none;stroke-width:1px;stroke-linecap:butt;stroke-linejoin:miter;stroke-opacity:1"
       d="M 1778.298,1055.6243 1620.37,851.2394 c 0,0 31.9541,-13.72193 59.5962,-38.04895 27.6421,-24.32702 50.9721,-59.25913 62.4691,-77.72485 22.9942,-36.93143 39.4603,-93.38365 41.9962,-94.52142 2.4532,-1.10068 26.5022,26.18508 37.7207,30.26101 3.4804,1.2645 4.2541,-8.42715 0.021,-21.72362 -4.233,-13.29648 -15.5762,-27.36639 -15.4246,-36.55291 0.1516,-9.18652 7.9929,-20.12753 7.9929,-20.12753 0,0 36.0555,-54.70166 38.6409,-57.52735 2.5854,-2.82569 7.5047,-5.82133 15.5622,0.61402 8.0574,6.43535 75.4906,71.64234 81.6436,73.11077 6.153,1.46843 6.9207,-3.91068 6.733,-10.09958 -0.1877,-6.1889 -1.4017,-11.29934 -5.6109,-19.88155 -4.2092,-8.58221 -48.4656,-78.26998 -55.3601,-89.11916 -6.8945,-10.84918 4.8622,-27.90466 4.8622,-27.90466 0,0 16.858,-24.15372 19.564,-33.89816 2.706,-9.74444 0.6352,-21.08842 0.6352,-21.08842 0,0 -2.6407,-19.76703 -4.5099,-24.20087 -1.8692,-4.43385 -6.6159,-3.19497 -8.9562,-2.73134 -2.3403,0.46363 -20.8272,5.35707 -30.2141,12.40744 -5.7453,4.31526 -8.9196,9.47749 -15.1599,18.84408 -6.2403,9.36659 -14.9455,35.19143 -22.5706,39.382 -7.625,4.19056 -25.1959,4.55222 -25.1959,4.55222 0,0 -97.4349,7.00226 -102.118,7.85523 -4.6832,0.85297 -16.022,3.50424 -15.7135,9.77507 0.2422,4.92498 9.0043,5.97289 12.8017,7.12167 3.2297,0.97705 89.9983,23.14789 92.5341,24.39846 2.5357,1.25057 8.9644,1.24641 5.6871,16.60876 -3.2773,15.36235 -18.2014,57.70376 -23.4902,68.90183 -5.2888,11.19807 -20.025,11.99303 -24.6137,13.01695 -4.5887,1.02392 -28.3198,4.79691 -32.6172,6.06003 -4.2974,1.26312 -8.05,3.29939 -8.4057,6.89185 -0.3558,3.59246 2.6569,4.9036 5.7803,6.09785 3.1233,1.19426 37.923,7.1248 39.0325,8.55394 1.1095,1.42914 -13.0246,18.86706 -30.3485,34.48956 -17.324,15.62249 -47.6546,38.55058 -82.3666,48.32909 -32.6597,9.20038 -57.974,9.56772 -69.5403,9.99779 -0.691,0.0257 -36.6875,1.02748 -39.1533,-1.75508 -1.7344,-1.95711 -21.1245,-37.27702 -37.6651,-81.01811 -16.5406,-43.7411 -28.2431,-100.9133 -29.9016,-129.16914 -3.1321,-53.36205 14.9887,-137.40482 70.9241,-202.01735 55.9353,-64.61253 113.214,-93.88412 186.1329,-106.62782 72.9188,-12.7437 164.214,5.15671 230.0459,58.35311 65.8319,53.1964 122.4067,143.33002 120.0728,242.38984 -2.3339,99.05982 -65.5704,208.08521 -107.7289,287.27685 -42.1585,79.19164 -195.8559,264.83335 -195.8559,264.83335 z"
       id="path12" />
    <path
       style="opacity:1;fill:url(#linearGradient1054);fill-opacity:1;stroke:none;stroke-width:1px;stroke-linecap:butt;stroke-linejoin:miter;stroke-opacity:1"
       d="m 1620.37,851.2394 c 0,0 29.8287,-11.75623 77.5996,-46.84485 47.7709,-35.08862 132.795,-124.2348 181.2558,-174.51222 5.5646,-5.54505 32.9833,-35.73633 42.0286,-45.99559 0,0 13.407,12.78257 17.2187,15.91317 4.0515,3.3276 9.1532,8.19262 11.5067,9.01154 1.9728,0.68644 5.18,1.11383 6.5917,-2.40923 1.2539,-3.12949 0.7781,-9.6234 0.065,-13.79033 -1.2956,-7.56784 -6.5015,-16.4527 -7.7551,-18.55873 -1.17,-1.96563 -3.2612,-5.48603 -5.0938,-8.49427 -1.2568,-2.06311 -5.0321,-7.76671 -5.0321,-7.76671 0,0 21.5733,-39.34424 28.3349,-62.90457 13.5232,-47.12067 13.2814,-102.2722 10.5686,-142.29771 -2.7128,-40.02551 -20.0991,-94.92805 -20.0991,-94.92805 0,0 59.5775,45.61407 92.1915,111.53574 48.2951,94.78173 36.5942,180.01629 -0.3774,269.49751 -36.9716,89.48122 -75.8092,151.49714 -88.2266,175.27167 -12.4173,23.77453 -146.8202,197.88873 -146.8202,197.88873 l -36.0285,43.7688 z"
       id="path822" />
    <path
       style="fill:url(#linearGradient1056);fill-opacity:1;stroke:#0fb4f4;stroke-width:1px;stroke-linecap:butt;stroke-linejoin:miter;stroke-opacity:0"
       d="m 1778.2979,1055.6243 c 0,0 136.2478,-165.8653 181.7532,-240.80859 45.5054,-74.94329 109.0831,-190.44954 121.3459,-293.73767 12.2628,-103.28813 -56.4853,-205.80135 -98.2176,-240.20612 -11.8842,-9.79756 -38.0445,-42.61146 -104.627,-64.91441 -49.5586,-16.6005 -92.2532,-16.64234 -92.2532,-16.64234 0,0 79.2451,25.37764 126.4198,67.67817 47.1746,42.30053 89.2295,83.63052 109.961,187.89457 20.7314,104.26405 -43.7709,224.19237 -43.7709,224.19237 0,0 -66.2449,126.26506 -105.6907,183.62423 -39.4458,57.35917 -118.9383,162.22399 -118.9383,162.22399 z"
       id="path1030" />
  </g>
</svg>
