<?xml version="1.0"?>
<svg xmlns="http://www.w3.org/2000/svg" xmlns:xlink="http://www.w3.org/1999/xlink" version="1.1" id="Layer_1" x="0px" y="0px" viewBox="0 0 512 512" style="enable-background:new 0 0 512 512;" xml:space="preserve" width="512px" height="512px" class="hovered-paths"><g><path style="fill:#4B82FF" d="M256,0C163.136,0,87.872,76.24,87.872,170.288c0,68.832,40.4,127.968,98.416,154.816l70,186.896  l70.128-187.232c57.632-27.008,97.712-85.936,97.712-154.48C424.128,76.24,348.848,0,256,0z M256,225.44  c-30.08,0-54.448-24.688-54.448-55.152s24.384-55.152,54.448-55.152s54.448,24.688,54.448,55.152  C310.448,200.736,286.08,225.44,256,225.44z" data-original="#E04F5F" class="hovered-path active-path" data-old_color="#E04F5F"/><ellipse style="fill:#FFFFFF" cx="256" cy="170.288" rx="54.448" ry="55.152" data-original="#FFFFFF" class="" data-old_color="#FFFFFF"/></g> </svg>
