<svg xmlns="http://www.w3.org/2000/svg" viewBox="0 0 503.69 503.69"><path d="M16.5 135.84L396.56 34.22c11.82-3.15 24.42 3.94 27.57 15.76l75.23 279.24a22.2 22.2 0 0 1-16.15 27.17L103.15 458c-11.82 3.16-24.42-3.93-27.57-15.75L.75 163.01a22.26 22.26 0 0 1 15.75-27.17z" fill="#e4e7e7"/><path d="M48.4 158.29l332.41-88.62c9.06-2.36 18.51 3.15 21.27 12.21l62.23 231.19a17.2 17.2 0 0 1-12.21 20.87l-332.41 88.62c-9.06 2.36-18.51-3.15-21.27-12.21L36.2 179.16c-2.75-9.06 2.76-18.51 12.21-20.87z" fill="#208db2"/><path d="M85.42 131.9h395.82a22.44 22.44 0 0 1 22.45 22.45v293.41a22.44 22.44 0 0 1-22.45 22.45H85.43a22.44 22.44 0 0 1-22.45-22.45V154.35c0-12.21 10.24-22.45 22.45-22.45z" fill="#f3f3f3"/><path d="M111.81 163.4h343.83c9.45 0 17.33 7.88 17.33 17.34v241.03c0 9.45-7.88 17.33-17.33 17.33H111.81a17.48 17.48 0 0 1-17.33-17.33V180.74c0-9.46 7.49-17.33 17.33-17.33z" fill="#a3e0f5"/><path d="M94.48 180.74v84.28c3.94.4 7.88.79 11.82.79a90.6 90.6 0 0 0 90.58-90.59c0-3.94-.39-7.87-.78-11.81H111.8a17.23 17.23 0 0 0-17.33 17.33z" fill="#efc75e"/><path d="M123.23 356.4c-9.84 0-19.69.78-28.75 1.96v63.41c0 9.45 7.88 17.33 17.33 17.33h131.15c.8-3.55 1.19-6.7 1.19-10.24 0-40.17-53.96-72.47-120.92-72.47z" fill="#3db39e"/><path d="M397.75 320.94c-107.92 0-195.75 52.78-196.93 118.16h254.43c9.45 0 17.33-7.88 17.33-17.33V330c-23.24-5.51-48.45-9.06-74.83-9.06z" fill="#4bc2ad"/></svg>